<svg width="176px" height="200px" viewBox="0 0 176 200" fill="none" xmlns="http://www.w3.org/2000/svg">
<path d="M88 100C115.617 100 138 77.6172 138 50C138 22.3828 115.617 0 88 0C60.3828 0 38 22.3828 38 50C38 77.6172 60.3828 100 88 100ZM123 112.5H116.477C107.805 116.484 98.1562 118.75 88 118.75C77.8438 118.75 68.2344 116.484 59.5234 112.5H53C24.0156 112.5 0.5 136.016 0.5 165V181.25C0.5 191.602 8.89844 200 19.25 200H156.75C167.102 200 175.5 191.602 175.5 181.25V165C175.5 136.016 151.984 112.5 123 112.5Z" fill="#015812" fill-opacity="0.5"/>
</svg>
