<svg width="36" height="36" viewBox="0 0 36 36" fill="none" xmlns="http://www.w3.org/2000/svg">
<path d="M19.6803 25.5342L13.3819 22.0986C12.287 23.2687 10.7289 24 9 24C5.68629 24 3 21.3137 3 18C3 14.6863 5.68629 12 9 12C10.7288 12 12.2869 12.7312 13.3818 13.9012L19.6803 10.4657C19.5625 9.99661 19.5 9.5056 19.5 9C19.5 5.68629 22.1863 3 25.5 3C28.8137 3 31.5 5.68629 31.5 9C31.5 12.3137 28.8137 15 25.5 15C23.7711 15 22.2131 14.2688 21.118 13.0987L14.8197 16.5342C14.9375 17.0033 15 17.4944 15 18C15 18.5056 14.9375 18.9966 14.8197 19.4657L21.1182 22.9012C22.2131 21.7313 23.7711 21 25.5 21C28.8137 21 31.5 23.6863 31.5 27C31.5 30.3137 28.8137 33 25.5 33C22.1863 33 19.5 30.3137 19.5 27C19.5 26.4944 19.5625 26.0033 19.6803 25.5342ZM9 21C10.6569 21 12 19.6569 12 18C12 16.3431 10.6569 15 9 15C7.34314 15 6 16.3431 6 18C6 19.6569 7.34314 21 9 21ZM25.5 12C27.1569 12 28.5 10.6569 28.5 9C28.5 7.34314 27.1569 6 25.5 6C23.8431 6 22.5 7.34314 22.5 9C22.5 10.6569 23.8431 12 25.5 12ZM25.5 30C27.1569 30 28.5 28.6569 28.5 27C28.5 25.3431 27.1569 24 25.5 24C23.8431 24 22.5 25.3431 22.5 27C22.5 28.6569 23.8431 30 25.5 30Z" fill="#015812"/>
</svg>
