<svg width="18" height="18" viewBox="0 0 18 18" fill="#015812" xmlns="http://www.w3.org/2000/svg">
<path d="M8.25 1.94116C11.976 1.94116 15 4.83601 15 8.40288C15 11.9697 11.976 14.8646 8.25 14.8646C4.524 14.8646 1.5 11.9697 1.5 8.40288C1.5 4.83601 4.524 1.94116 8.25 1.94116ZM8.25 13.4287C11.1506 13.4287 13.5 11.1796 13.5 8.40288C13.5 5.62614 11.1506 3.3771 8.25 3.3771C5.34938 3.3771 3 5.62614 3 8.40288C3 11.1796 5.34938 13.4287 8.25 13.4287ZM14.614 13.4797L16.7353 15.5104L15.6746 16.5258L13.5533 14.4951L14.614 13.4797Z" fill="#015812"/>
</svg>
