<svg width="37" height="36" viewBox="0 0 37 36" fill="none" xmlns="http://www.w3.org/2000/svg">
<path d="M18.5 1.5L32.75 9.75V26.25L18.5 34.5L4.25 26.25V9.75L18.5 1.5ZM18.5 4.9665L7.25 11.4797V24.5204L18.5 31.0335L29.75 24.5204V11.4797L18.5 4.9665ZM18.5 24C15.1863 24 12.5 21.3137 12.5 18C12.5 14.6863 15.1863 12 18.5 12C21.8137 12 24.5 14.6863 24.5 18C24.5 21.3137 21.8137 24 18.5 24ZM18.5 21C20.1569 21 21.5 19.6569 21.5 18C21.5 16.3431 20.1569 15 18.5 15C16.8431 15 15.5 16.3431 15.5 18C15.5 19.6569 16.8431 21 18.5 21Z" fill="#015812"/>
</svg>
