<svg width="40" height="32" viewBox="0 0 40 32" fill="none" xmlns="http://www.w3.org/2000/svg">
<path d="M36.85 15L39.7 12.15C40.0938 11.7562 40.0938 11.1188 39.7 10.725L38.275 9.3C37.8813 8.90625 37.2437 8.90625 36.85 9.3L34 12.15L31.15 9.3C30.7563 8.90625 30.1187 8.90625 29.725 9.3L28.3 10.725C27.9062 11.1188 27.9062 11.7562 28.3 12.15L31.15 15L28.3 17.85C27.9062 18.2437 27.9062 18.8813 28.3 19.275L29.725 20.7C30.1187 21.0938 30.7563 21.0938 31.15 20.7L34 17.85L36.85 20.7C37.2437 21.0938 37.8813 21.0938 38.275 20.7L39.7 19.275C40.0938 18.8813 40.0938 18.2437 39.7 17.85L36.85 15ZM14 16C18.4188 16 22 12.4187 22 8C22 3.58125 18.4188 0 14 0C9.58125 0 6 3.58125 6 8C6 12.4187 9.58125 16 14 16ZM19.6 18H18.5562C17.1687 18.6375 15.625 19 14 19C12.375 19 10.8375 18.6375 9.44375 18H8.4C3.7625 18 0 21.7625 0 26.4V29C0 30.6562 1.34375 32 3 32H25C26.6562 32 28 30.6562 28 29V26.4C28 21.7625 24.2375 18 19.6 18Z" fill="#015812"/>
</svg>
