<svg width="40" height="32" viewBox="0 0 40 32" fill="none" xmlns="http://www.w3.org/2000/svg">
<path d="M14 15.6091C18.4188 15.6091 22 12.141 22 7.86197C22 3.58291 18.4188 0.114868 14 0.114868C9.58125 0.114868 6 3.58291 6 7.86197C6 12.141 9.58125 15.6091 14 15.6091ZM19.6 17.5458H18.5562C17.1687 18.1632 15.625 18.5142 14 18.5142C12.375 18.5142 10.8375 18.1632 9.44375 17.5458H8.4C3.7625 17.5458 0 21.1894 0 25.6803V28.1981C0 29.802 1.34375 31.1033 3 31.1033H20.1812C20.0312 30.6917 19.9688 30.2559 20.0187 29.8141L20.4438 26.1282L20.5187 25.4564L21.0125 24.9782L25.8438 20.2997C24.3125 18.6232 22.0938 17.5458 19.6 17.5458ZM22.4312 26.34L22.0063 30.032C21.9375 30.6493 22.475 31.1699 23.1063 31.0972L26.9125 30.6857L35.5312 22.3394L31.05 17.9998L22.4312 26.34ZM39.5625 16.3898L37.1937 14.096C36.6125 13.5331 35.6625 13.5331 35.0812 14.096L32.7188 16.3838L32.4625 16.6319L36.95 20.9715L39.5625 18.4416C40.1437 17.8727 40.1437 16.9588 39.5625 16.3898Z" fill="#015812"/>
</svg>
