<svg width="26" height="26" viewBox="0 0 26 26" fill="none" xmlns="http://www.w3.org/2000/svg">
<path d="M20.2174 15.4783C19.0458 14.3067 19.0458 12.4072 20.2174 11.2356L25.2033 6.24969C26.0755 5.37753 26.0755 3.96347 25.2033 3.0906L23.6238 1.51105C22.7516 0.638894 21.3375 0.638894 20.4647 1.51105L15.4787 6.49697C14.3072 7.66855 12.4077 7.66855 11.2361 6.49698L6.25018 1.51105C5.37802 0.638894 3.96396 0.638894 3.09109 1.51105L1.51154 3.0906C0.639382 3.96276 0.639382 5.37682 1.51154 6.24969L6.49746 11.2356C7.66904 12.4072 7.66904 14.3067 6.49747 15.4783L1.51154 20.4642C0.639382 21.3363 0.639382 22.7504 1.51154 23.6233L3.09109 25.2028C3.96325 26.075 5.37802 26.075 6.25018 25.2028L11.2361 20.2169C12.4077 19.0453 14.3072 19.0453 15.4787 20.2169L20.4647 25.2028C21.3368 26.075 22.7516 26.075 23.6238 25.2028L25.2033 23.6233C26.0755 22.7511 26.0755 21.337 25.2033 20.4642L20.2174 15.4783Z" fill="#830303"/>
</svg>
