<svg width="80" height="80" viewBox="0 0 80 80" fill="none" xmlns="http://www.w3.org/2000/svg">
<path d="M70.9375 79.375H9.0625C4.40254 79.375 0.625 75.5975 0.625 70.9375V9.0625C0.625 4.40254 4.40254 0.625 9.0625 0.625H70.9375C75.5975 0.625 79.375 4.40254 79.375 9.0625V70.9375C79.375 75.5975 75.5975 79.375 70.9375 79.375ZM34.9575 62.1381L67.3013 29.7943C68.3996 28.696 68.3996 26.9152 67.3013 25.8169L63.3239 21.8395C62.2256 20.7412 60.4448 20.7411 59.3463 21.8395L32.9688 48.2169L20.6537 35.9018C19.5554 34.8036 17.7746 34.8036 16.6761 35.9018L12.6987 39.8792C11.6004 40.9775 11.6004 42.7584 12.6987 43.8566L30.98 62.1379C32.0784 63.2365 33.8591 63.2365 34.9575 62.1381Z" fill="#015812"/>
</svg>
