<svg width="35" height="35" viewBox="0 0 35 35" fill="none" xmlns="http://www.w3.org/2000/svg">
<path d="M26.2554 19.6213C25.0838 18.4497 25.0838 16.5503 26.2554 15.3787L34.0842 7.54986C35.3053 6.32883 35.3053 4.34915 34.0842 3.12713L31.8729 0.915767C30.6518 -0.305256 28.6722 -0.305256 27.4501 0.915767L19.6213 8.74459C18.4497 9.91616 16.5503 9.91616 15.3787 8.74459L7.54986 0.915767C6.32884 -0.305256 4.34915 -0.305256 3.12713 0.915767L0.915767 3.12713C-0.305256 4.34815 -0.305256 6.32784 0.915767 7.54986L8.74459 15.3787C9.91616 16.5503 9.91616 18.4497 8.74459 19.6213L0.915767 27.4501C-0.305256 28.6712 -0.305256 30.6509 0.915767 31.8729L3.12713 34.0842C4.34815 35.3053 6.32884 35.3053 7.54986 34.0842L15.3787 26.2554C16.5503 25.0838 18.4497 25.0838 19.6213 26.2554L27.4501 34.0842C28.6712 35.3053 30.6518 35.3053 31.8729 34.0842L34.0842 31.8729C35.3053 30.6518 35.3053 28.6722 34.0842 27.4501L26.2554 19.6213Z" fill="#015812"/>
</svg>
