<svg width="44" height="38" viewBox="0 0 44 38" fill="none" xmlns="http://www.w3.org/2000/svg">
<path d="M43.7957 9.64009V33.5513C43.7957 35.7514 41.98 37.5364 39.7421 37.5364H4.61119C2.37328 37.5364 0.557617 35.7514 0.557617 33.5513V9.64009C0.557617 7.43993 2.37328 5.6549 4.61119 5.6549H12.0427L13.0815 2.92338C13.6726 1.37082 15.1843 0.341309 16.8732 0.341309H27.4716C29.1606 0.341309 30.6723 1.37082 31.2634 2.92338L32.3106 5.6549H39.7421C41.98 5.6549 43.7957 7.43993 43.7957 9.64009ZM32.3106 21.5957C32.3106 16.0994 27.7672 11.6327 22.1767 11.6327C16.5861 11.6327 12.0427 16.0994 12.0427 21.5957C12.0427 27.0919 16.5861 31.5587 22.1767 31.5587C27.7672 31.5587 32.3106 27.0919 32.3106 21.5957ZM29.6082 21.5957C29.6082 25.6224 26.2725 28.9019 22.1767 28.9019C18.0809 28.9019 14.7451 25.6224 14.7451 21.5957C14.7451 17.569 18.0809 14.2895 22.1767 14.2895C26.2725 14.2895 29.6082 17.569 29.6082 21.5957Z" fill="#015812" fill-opacity="0.5"/>
</svg>
