<svg width="40" height="39" viewBox="0 0 40 39" fill="none" xmlns="http://www.w3.org/2000/svg">
<path d="M37.5 5.93066V33.2952C37.5 35.1336 36.0156 36.5635 34.125 36.5635H5.875C4.00781 36.5559 2.5 35.1487 2.5 33.2876V5.93066C2.5 4.10737 3.96875 2.66235 5.875 2.66235H34.1328C36.0078 2.66235 37.5 4.08467 37.5 5.93066ZM34.5859 33.2876V5.93066C34.5859 5.7037 34.3828 5.49186 34.1328 5.49186H33.4062L24.7891 11.1357L20 7.36055L15.2188 11.1357L6.60156 5.4843H5.875C5.625 5.4843 5.42188 5.69613 5.42188 5.9231V33.2876C5.42188 33.5146 5.625 33.7264 5.875 33.7264H34.1328C34.3828 33.734 34.5859 33.5221 34.5859 33.2876ZM14.2344 14.3133V17.1125H8.49219V14.3133H14.2344ZM14.2344 19.942V22.764H8.49219V19.942H14.2344ZM15.1016 8.798L19.3203 5.49186H10.0625L15.1016 8.798ZM31.5078 14.3133V17.1125H16.1953V14.3133H31.5078ZM31.5078 19.942V22.764H16.1953V19.942H31.5078ZM24.8984 8.798L29.9375 5.49186H20.6875L24.8984 8.798ZM31.5078 25.5859V28.4079H23.7422V25.5859H31.5078Z" fill="#015812"/>
</svg>
